<svg width="457" height="114" viewBox="0 0 457 114" fill="none" xmlns="http://www.w3.org/2000/svg">
<g clip-path="url(#clip0_1438_153)">
<path d="M0.310547 2.49219H16.3319V18.3053H0.310547V2.49219Z" fill="#1A202C"/>
<path fill-rule="evenodd" clip-rule="evenodd" d="M84.5996 10.4453H116.643V84.2398H84.5996V10.4453ZM91.6663 58.5274H98.2305V77.7965H103.591V58.5274H110.139V53.9954H91.6663V58.5274Z" fill="#1A202C"/>
<path fill-rule="evenodd" clip-rule="evenodd" d="M66.4881 26.2586H50.4668V84.2398H82.5094L82.5095 10.4453H66.4882L66.4881 26.2586ZM70.6067 64.389L67.5748 63.1544C67.426 63.0939 67.2792 63.0349 67.136 62.9775C65.2801 62.2317 63.9334 61.6905 63.9334 60.3414C63.9334 58.9817 65.1367 58.1847 66.9653 58.1847C68.8562 58.1847 70.3566 58.8723 71.935 60.0758L74.6387 56.6844C72.5914 54.6371 69.7158 53.5433 66.9809 53.5433C62.0581 53.5433 58.5103 56.6845 58.5103 60.6226C58.5103 64.0921 60.8546 66.1393 63.3238 67.1239L66.387 68.4367C66.5087 68.4879 66.628 68.5378 66.7445 68.5865C68.6184 69.3703 69.8097 69.8685 69.8097 71.2809C69.8097 72.703 68.7156 73.5782 66.4964 73.5782C64.5273 73.5782 62.3393 72.5623 60.6515 71.0933L57.5571 74.7816C59.9951 77.0475 63.2926 78.204 66.387 78.204C72.0444 78.204 75.3264 74.7816 75.3264 70.8277C75.3108 67.499 73.4822 65.5611 70.6067 64.389Z" fill="#1A202C"/>
<path d="M16.3281 26.25H32.3495V42.0631H16.3281V26.25Z" fill="#1A202C"/>
<path d="M32.3495 42.0703L48.3705 42.0704L48.3707 84.2383H16.3281V57.8837H24.59V77.7951H29.9974V69.2155H32.9199L37.4834 77.7951H43.5002L38.1397 68.2621C40.6558 67.137 42.375 64.9021 42.375 61.4014C42.375 55.7442 38.2179 53.9939 33.1699 53.9939H32.3493L32.3495 42.0703Z" fill="#1A202C"/>
<path d="M32.3469 26.2586L32.3467 10.4453H48.368V26.2584L32.3469 26.2586Z" fill="#1A202C"/>
<path d="M32.735 64.931H30V58.2578H32.735C35.5481 58.2578 37.0796 59.0548 37.0796 61.399C37.0796 63.7275 35.5481 64.931 32.735 64.931Z" fill="#1A202C"/>
<path d="M79.5469 111.423V97.8828H81.8457V111.423H79.5469Z" fill="#1A202C"/>
<path d="M70.1919 111.142C70.9706 111.458 71.8296 111.617 72.7689 111.617C73.3744 111.617 73.9801 111.544 74.5856 111.397C75.2036 111.239 75.7597 111.025 76.254 110.756C76.7483 110.488 77.144 110.189 77.4405 109.86L76.254 107.976C75.9822 108.244 75.6795 108.482 75.3457 108.689C75.0244 108.884 74.6721 109.036 74.289 109.146C73.9059 109.257 73.5104 109.31 73.1026 109.31C72.4722 109.31 71.8913 109.214 71.36 109.018C70.8408 108.812 70.3897 108.519 70.0066 108.14C69.6359 107.762 69.3454 107.31 69.1353 106.786C68.9375 106.262 68.8387 105.676 68.8387 105.029C68.8387 104.395 68.9437 103.822 69.1538 103.31C69.364 102.785 69.6482 102.334 70.0066 101.956C70.3774 101.578 70.8099 101.285 71.3043 101.077C71.811 100.87 72.3486 100.766 72.9172 100.766C73.3003 100.766 73.671 100.827 74.0294 100.949C74.4002 101.059 74.7524 101.229 75.0861 101.462C75.4323 101.681 75.7659 101.956 76.0872 102.285L77.6259 100.619C77.2923 100.192 76.8782 99.8212 76.3838 99.5037C75.8895 99.1746 75.3457 98.9185 74.7524 98.7353C74.1593 98.5521 73.5475 98.4609 72.9172 98.4609C71.9903 98.4609 71.1313 98.625 70.3403 98.955C69.5493 99.284 68.8573 99.7473 68.264 100.345C67.6708 100.943 67.2073 101.638 66.8737 102.431C66.5399 103.224 66.373 104.083 66.373 105.012C66.373 105.974 66.5276 106.865 66.8366 107.682C67.1579 108.487 67.6027 109.19 68.1714 109.787C68.7398 110.372 69.4134 110.824 70.1919 111.142Z" fill="#1A202C"/>
<path fill-rule="evenodd" clip-rule="evenodd" d="M16.8809 111.418V98.6094H22.0901C23.0294 98.6094 23.876 98.7619 24.6299 99.0669C25.3962 99.372 26.0511 99.8114 26.5949 100.384C27.1511 100.958 27.5713 101.634 27.8555 102.415C28.1522 103.196 28.3005 104.062 28.3005 105.014C28.3005 105.964 28.1522 106.837 27.8555 107.63C27.5713 108.411 27.1573 109.088 26.6134 109.66C26.0697 110.222 25.4147 110.655 24.6485 110.96C23.8821 111.265 23.0294 111.418 22.0901 111.418H16.8809ZM21.9974 109.221H19.2909V100.805H21.9974C22.6029 100.805 23.1406 100.903 23.6102 101.098C24.0799 101.293 24.4816 101.574 24.8153 101.939C25.1613 102.305 25.4208 102.751 25.5938 103.275C25.7669 103.788 25.8534 104.367 25.8534 105.014C25.8534 105.66 25.7669 106.246 25.5938 106.77C25.4208 107.282 25.1675 107.722 24.8338 108.087C24.5001 108.454 24.0922 108.734 23.6102 108.929C23.1406 109.124 22.6029 109.221 21.9974 109.221Z" fill="#1A202C"/>
<path fill-rule="evenodd" clip-rule="evenodd" d="M34.1925 111.605C33.3891 111.605 32.6599 111.385 32.005 110.946C31.3499 110.507 30.8247 109.909 30.4292 109.154C30.0337 108.397 29.8359 107.537 29.8359 106.573C29.8359 105.609 30.0337 104.75 30.4292 103.994C30.8247 103.237 31.3623 102.645 32.0421 102.218C32.7218 101.791 33.488 101.578 34.3408 101.578C34.8352 101.578 35.2862 101.651 35.6941 101.798C36.1019 101.931 36.4603 102.127 36.7692 102.383C37.0409 102.608 37.2696 102.862 37.4552 103.143V101.78H39.7539V111.422H37.4366V110.069C37.2231 110.344 36.9574 110.593 36.6395 110.818C36.3059 111.05 35.9288 111.239 35.5086 111.385C35.1008 111.532 34.6621 111.605 34.1925 111.605ZM34.8228 109.611C35.3542 109.611 35.8239 109.482 36.2316 109.226C36.6395 108.97 36.9547 108.616 37.1772 108.165C37.4119 107.702 37.5294 107.171 37.5294 106.573C37.5294 105.988 37.4119 105.469 37.1772 105.018C36.9547 104.566 36.6395 104.212 36.2316 103.956C35.8239 103.7 35.3542 103.572 34.8228 103.572C34.2914 103.572 33.8216 103.7 33.4139 103.956C33.0183 104.212 32.7095 104.566 32.4869 105.018C32.2645 105.469 32.1532 105.988 32.1532 106.573C32.1532 107.171 32.2645 107.702 32.4869 108.165C32.7095 108.616 33.0183 108.97 33.4139 109.226C33.8216 109.482 34.2914 109.611 34.8228 109.611Z" fill="#1A202C"/>
<path d="M43.4534 103.873V111.431H45.7336V103.873H47.8655V101.788H45.7336V99.3359H43.4534V101.788H41.5254V103.873H43.4534Z" fill="#1A202C"/>
<path fill-rule="evenodd" clip-rule="evenodd" d="M53.1994 111.605C52.396 111.605 51.6669 111.385 51.0118 110.946C50.3568 110.507 49.8316 109.909 49.4361 109.154C49.0406 108.397 48.8428 107.537 48.8428 106.573C48.8428 105.609 49.0406 104.75 49.4361 103.994C49.8316 103.237 50.3692 102.645 51.0489 102.218C51.7287 101.791 52.4949 101.578 53.3476 101.578C53.842 101.578 54.2932 101.651 54.701 101.798C55.1089 101.931 55.4672 102.127 55.7763 102.383C56.0478 102.608 56.2765 102.862 56.4621 103.143V101.78H58.761V111.422H56.4436V110.069C56.23 110.344 55.9642 110.593 55.6464 110.818C55.3128 111.05 54.9358 111.239 54.5156 111.385C54.1078 111.532 53.669 111.605 53.1994 111.605ZM53.8297 109.611C54.3611 109.611 54.8307 109.482 55.2386 109.226C55.6464 108.97 55.9616 108.616 56.1841 108.165C56.4189 107.702 56.5363 107.171 56.5363 106.573C56.5363 105.988 56.4189 105.469 56.1841 105.018C55.9616 104.566 55.6464 104.212 55.2386 103.956C54.8307 103.7 54.3611 103.572 53.8297 103.572C53.2982 103.572 52.8287 103.7 52.4208 103.956C52.0252 104.212 51.7163 104.566 51.4939 105.018C51.2714 105.469 51.1601 105.988 51.1601 106.573C51.1601 107.171 51.2714 107.702 51.4939 108.165C51.7163 108.616 52.0252 108.97 52.4208 109.226C52.8287 109.482 53.2982 109.611 53.8297 109.611Z" fill="#1A202C"/>
<path fill-rule="evenodd" clip-rule="evenodd" d="M86.1892 110.965C86.9555 111.391 87.8267 111.605 88.8031 111.605C89.7671 111.605 90.6322 111.391 91.3985 110.965C92.1648 110.525 92.7641 109.928 93.1966 109.172C93.6416 108.416 93.8641 107.555 93.8641 106.591C93.8641 105.628 93.6416 104.768 93.1966 104.012C92.7641 103.255 92.1648 102.663 91.3985 102.236C90.6322 101.798 89.7671 101.578 88.8031 101.578C87.8267 101.578 86.9555 101.798 86.1892 102.236C85.4229 102.663 84.8174 103.255 84.3724 104.012C83.9275 104.768 83.7051 105.628 83.7051 106.591C83.7051 107.555 83.9275 108.416 84.3724 109.172C84.8174 109.928 85.4229 110.525 86.1892 110.965ZM90.212 109.207C89.8042 109.476 89.3344 109.611 88.8031 109.611C88.2716 109.611 87.7897 109.476 87.3572 109.207C86.937 108.94 86.6094 108.579 86.3745 108.128C86.1397 107.676 86.0224 107.165 86.0224 106.591C86.0224 106.018 86.1397 105.505 86.3745 105.054C86.6094 104.59 86.937 104.231 87.3572 103.974C87.7897 103.706 88.2716 103.572 88.8031 103.572C89.3344 103.572 89.8042 103.706 90.212 103.974C90.6322 104.231 90.9598 104.585 91.1946 105.036C91.4417 105.487 91.5592 106.006 91.5468 106.591C91.5592 107.165 91.4417 107.676 91.1946 108.128C90.9598 108.579 90.6322 108.94 90.212 109.207Z" fill="#1A202C"/>
<path d="M99.3052 111.615C98.6013 111.615 97.9897 111.461 97.4702 111.157C96.9513 110.84 96.5557 110.394 96.284 109.821C96.012 109.235 95.876 108.54 95.876 107.736V101.789H98.1567V107.26C98.1567 107.772 98.2363 108.21 98.3974 108.577C98.5576 108.931 98.7926 109.205 99.1014 109.4C99.4111 109.595 99.782 109.694 100.214 109.694C100.535 109.694 100.826 109.645 101.085 109.547C101.357 109.437 101.592 109.291 101.79 109.107C101.988 108.913 102.142 108.686 102.253 108.431C102.365 108.163 102.42 107.875 102.42 107.571V101.789H104.701V111.432H102.475L102.449 110.005C102.344 110.158 102.223 110.305 102.086 110.444C101.74 110.798 101.327 111.084 100.844 111.303C100.363 111.511 99.849 111.615 99.3052 111.615Z" fill="#1A202C"/>
<path fill-rule="evenodd" clip-rule="evenodd" d="M108.967 110.966C109.66 111.392 110.437 111.606 111.304 111.606C111.748 111.606 112.18 111.539 112.601 111.405C113.034 111.258 113.41 111.069 113.731 110.837C114.009 110.638 114.24 110.42 114.424 110.184L114.454 111.423H116.66V97.8828H114.38V102.889C114.223 102.715 114.038 102.553 113.824 102.403C113.477 102.146 113.082 101.945 112.638 101.798C112.206 101.653 111.754 101.579 111.284 101.579C110.419 101.579 109.641 101.798 108.949 102.238C108.269 102.665 107.732 103.256 107.335 104.012C106.94 104.768 106.742 105.629 106.742 106.592C106.742 107.568 106.94 108.435 107.335 109.191C107.744 109.934 108.288 110.527 108.967 110.966ZM113.157 109.3C112.748 109.569 112.279 109.703 111.748 109.703C111.217 109.703 110.747 109.569 110.338 109.3C109.932 109.031 109.609 108.666 109.375 108.203C109.152 107.739 109.041 107.202 109.041 106.592C109.041 105.995 109.152 105.464 109.375 105C109.609 104.525 109.932 104.158 110.338 103.903C110.747 103.634 111.217 103.5 111.748 103.5C112.279 103.5 112.748 103.634 113.157 103.903C113.564 104.158 113.88 104.525 114.102 105C114.338 105.464 114.454 105.995 114.454 106.592C114.454 107.202 114.338 107.739 114.102 108.203C113.88 108.666 113.564 109.031 113.157 109.3Z" fill="#1A202C"/>
</g>
<path d="M150.562 2L150.562 112.317" stroke="#1A202C" stroke-width="2.86538" stroke-linecap="round"/>
<path d="M186.938 50.6562V24.5813H197.144C199.007 24.5813 200.683 24.8917 202.173 25.5125C203.688 26.1334 204.979 27.0274 206.047 28.1945C207.115 29.3617 207.934 30.7399 208.505 32.3293C209.077 33.9186 209.362 35.6818 209.362 37.6188C209.362 39.5558 209.077 41.3313 208.505 42.9455C207.934 44.5348 207.115 45.9131 206.047 47.0803C205.004 48.2226 203.725 49.1042 202.21 49.725C200.695 50.3458 199.007 50.6562 197.144 50.6562H186.938ZM190.961 47.192L190.849 46.7823H196.958C198.274 46.7823 199.441 46.5712 200.459 46.149C201.502 45.7268 202.372 45.1308 203.067 44.361C203.787 43.5663 204.333 42.5978 204.706 41.4555C205.078 40.3132 205.265 39.0343 205.265 37.6188C205.265 36.2033 205.078 34.9368 204.706 33.8193C204.333 32.6769 203.787 31.7084 203.067 30.9138C202.347 30.1191 201.478 29.5107 200.459 29.0885C199.441 28.6664 198.274 28.4553 196.958 28.4553H190.737L190.961 28.12V47.192ZM221.358 51.0287C219.744 51.0287 218.267 50.5818 216.926 49.6878C215.609 48.7938 214.554 47.5769 213.759 46.0373C212.965 44.4976 212.567 42.7593 212.567 40.8223C212.567 38.8604 212.965 37.1221 213.759 35.6073C214.579 34.0676 215.671 32.8632 217.037 31.994C218.428 31.1249 219.98 30.6903 221.694 30.6903C222.712 30.6903 223.643 30.8393 224.487 31.1373C225.332 31.4353 226.064 31.8574 226.685 32.4038C227.331 32.9253 227.852 33.5337 228.25 34.229C228.672 34.9243 228.932 35.6693 229.032 36.464L228.175 36.166V31.1H232.049V50.6562H228.175V46L229.069 45.7393C228.92 46.4098 228.61 47.0678 228.138 47.7135C227.691 48.3343 227.107 48.8931 226.387 49.3898C225.692 49.8864 224.909 50.2838 224.04 50.5818C223.196 50.8797 222.302 51.0287 221.358 51.0287ZM222.364 47.49C223.531 47.49 224.562 47.2044 225.456 46.6333C226.35 46.0621 227.045 45.2798 227.542 44.2865C228.063 43.2683 228.324 42.1136 228.324 40.8223C228.324 39.5558 228.063 38.4258 227.542 37.4325C227.045 36.4392 226.35 35.6569 225.456 35.0858C224.562 34.5146 223.531 34.229 222.364 34.229C221.222 34.229 220.204 34.5146 219.31 35.0858C218.44 35.6569 217.745 36.4392 217.224 37.4325C216.727 38.4258 216.479 39.5558 216.479 40.8223C216.479 42.1136 216.727 43.2683 217.224 44.2865C217.745 45.2798 218.44 46.0621 219.31 46.6333C220.204 47.2044 221.222 47.49 222.364 47.49ZM239.827 50.6562V26.1085H243.664V50.6562H239.827ZM235.767 34.825V31.1H248.209V34.825H235.767ZM259.045 51.0287C257.431 51.0287 255.953 50.5818 254.612 49.6878C253.296 48.7938 252.24 47.5769 251.446 46.0373C250.651 44.4976 250.254 42.7593 250.254 40.8223C250.254 38.8604 250.651 37.1221 251.446 35.6073C252.265 34.0676 253.358 32.8632 254.724 31.994C256.114 31.1249 257.667 30.6903 259.38 30.6903C260.398 30.6903 261.329 30.8393 262.174 31.1373C263.018 31.4353 263.751 31.8574 264.372 32.4038C265.017 32.9253 265.539 33.5337 265.936 34.229C266.358 34.9243 266.619 35.6693 266.718 36.464L265.862 36.166V31.1H269.736V50.6562H265.862V46L266.756 45.7393C266.607 46.4098 266.296 47.0678 265.824 47.7135C265.377 48.3343 264.794 48.8931 264.074 49.3898C263.378 49.8864 262.596 50.2838 261.727 50.5818C260.882 50.8797 259.988 51.0287 259.045 51.0287ZM260.051 47.49C261.218 47.49 262.248 47.2044 263.142 46.6333C264.036 46.0621 264.732 45.2798 265.228 44.2865C265.75 43.2683 266.011 42.1136 266.011 40.8223C266.011 39.5558 265.75 38.4258 265.228 37.4325C264.732 36.4392 264.036 35.6569 263.142 35.0858C262.248 34.5146 261.218 34.229 260.051 34.229C258.908 34.229 257.89 34.5146 256.996 35.0858C256.127 35.6569 255.432 36.4392 254.91 37.4325C254.413 38.4258 254.165 39.5558 254.165 40.8223C254.165 42.1136 254.413 43.2683 254.91 44.2865C255.432 45.2798 256.127 46.0621 256.996 46.6333C257.89 47.2044 258.908 47.49 260.051 47.49ZM286.501 50.6562V24.5813H302.928V28.4553H290.524V46.7823H302.928V50.6562H286.501ZM288.326 39.2205V35.3465H300.88V39.2205H288.326ZM314.275 50.6562L306.006 31.1H310.14L316.1 45.7393L315.393 46.0745L321.762 31.1H325.711L317.032 50.6562H314.275ZM337.802 51.0287C335.791 51.0287 334.003 50.6066 332.438 49.7623C330.898 48.8931 329.682 47.7135 328.788 46.2235C327.918 44.7335 327.484 43.02 327.484 41.083C327.484 39.5433 327.732 38.1403 328.229 36.8738C328.725 35.6073 329.408 34.5146 330.278 33.5958C331.172 32.6521 332.227 31.9319 333.444 31.4353C334.685 30.9138 336.026 30.653 337.467 30.653C338.733 30.653 339.913 30.9014 341.006 31.398C342.098 31.8698 343.042 32.5279 343.837 33.3723C344.656 34.2166 345.277 35.2223 345.699 36.3895C346.146 37.5318 346.357 38.7859 346.332 40.1518L346.295 41.7908H330.315L329.458 38.7363H342.98L342.421 39.3695V38.4755C342.347 37.656 342.073 36.9234 341.602 36.2778C341.13 35.6321 340.534 35.123 339.814 34.7505C339.093 34.378 338.311 34.1918 337.467 34.1918C336.126 34.1918 334.996 34.4525 334.077 34.974C333.158 35.4707 332.463 36.2157 331.991 37.209C331.519 38.1775 331.283 39.3819 331.283 40.8223C331.283 42.1881 331.569 43.3801 332.14 44.3983C332.711 45.3916 333.518 46.1614 334.561 46.7078C335.604 47.2541 336.809 47.5273 338.175 47.5273C339.143 47.5273 340.037 47.3658 340.857 47.043C341.701 46.7202 342.607 46.1366 343.576 45.2923L345.513 48.0115C344.917 48.6075 344.184 49.129 343.315 49.576C342.471 50.023 341.564 50.3831 340.596 50.6562C339.652 50.9046 338.721 51.0287 337.802 51.0287ZM350.502 50.6562V31.1H354.339V35.123L353.668 35.57C353.916 34.7008 354.401 33.9062 355.121 33.186C355.841 32.441 356.698 31.845 357.691 31.398C358.684 30.9262 359.703 30.6903 360.746 30.6903C362.236 30.6903 363.477 30.9883 364.471 31.5843C365.464 32.1554 366.209 33.037 366.706 34.229C367.202 35.421 367.451 36.9234 367.451 38.7363V50.6562H363.614V38.997C363.614 37.8795 363.465 36.9607 363.167 36.2405C362.869 35.4955 362.409 34.9616 361.789 34.6388C361.168 34.2911 360.398 34.1421 359.479 34.1918C358.734 34.1918 358.051 34.3159 357.43 34.5643C356.81 34.7878 356.263 35.1106 355.791 35.5328C355.344 35.9549 354.984 36.4516 354.711 37.0228C354.463 37.5691 354.339 38.1651 354.339 38.8108V50.6562H352.439C352.116 50.6562 351.793 50.6562 351.47 50.6562C351.148 50.6562 350.825 50.6562 350.502 50.6562ZM375.077 50.6562V26.1085H378.913V50.6562H375.077ZM371.016 34.825V31.1H383.458V34.825H371.016ZM192.488 93.6562L184.181 67.5813H188.465L193.494 83.8968C193.643 84.2941 193.779 84.7659 193.903 85.3123C194.028 85.8338 194.139 86.3677 194.239 86.914C194.338 87.4603 194.425 87.9694 194.499 88.4413C194.599 88.9131 194.686 89.298 194.76 89.596L193.68 89.5588C194.052 88.2426 194.338 87.2244 194.537 86.5043C194.76 85.7841 194.934 85.2378 195.058 84.8653C195.182 84.4679 195.294 84.1327 195.393 83.8595L200.087 72.0885H203.7L208.245 83.8595C208.493 84.4555 208.704 85.0515 208.878 85.6475C209.077 86.2187 209.25 86.8023 209.399 87.3983C209.548 87.9694 209.71 88.5778 209.884 89.2235L208.915 89.4843C209.039 88.8138 209.126 88.2923 209.176 87.9198C209.25 87.5224 209.312 87.1996 209.362 86.9513C209.412 86.7029 209.461 86.467 209.511 86.2435C209.561 85.9952 209.635 85.6848 209.735 85.3123C209.859 84.9398 210.02 84.4307 210.219 83.785L215.173 67.5813H219.494L211.187 93.6562H208.394L201.502 77.3408L201.838 77.4898L195.207 93.6562H192.488ZM222.964 93.6562V74.1H226.838V80.2463L226.466 78.7563C226.739 77.8126 227.199 76.9558 227.844 76.186C228.515 75.4162 229.272 74.8078 230.116 74.3608C230.986 73.9138 231.88 73.6903 232.798 73.6903C233.221 73.6903 233.618 73.7275 233.99 73.802C234.388 73.8765 234.698 73.9634 234.922 74.0628L233.916 78.2348C233.618 78.1106 233.283 78.0113 232.91 77.9368C232.563 77.8374 232.215 77.7878 231.867 77.7878C231.197 77.7878 230.551 77.9243 229.93 78.1975C229.334 78.4458 228.8 78.8059 228.328 79.2778C227.881 79.7248 227.521 80.2587 227.248 80.8795C226.975 81.4755 226.838 82.1336 226.838 82.8538V93.6562H222.964ZM245.942 94.0287C244.03 94.0287 242.317 93.5942 240.802 92.725C239.312 91.831 238.132 90.6266 237.263 89.1118C236.394 87.5721 235.959 85.8213 235.959 83.8595C235.959 81.8977 236.394 80.1593 237.263 78.6445C238.132 77.1048 239.312 75.9004 240.802 75.0313C242.317 74.1373 244.03 73.6903 245.942 73.6903C247.83 73.6903 249.518 74.1373 251.008 75.0313C252.523 75.9004 253.715 77.1048 254.584 78.6445C255.454 80.1593 255.888 81.8977 255.888 83.8595C255.888 85.8213 255.454 87.5721 254.584 89.1118C253.715 90.6266 252.523 91.831 251.008 92.725C249.518 93.5942 247.83 94.0287 245.942 94.0287ZM245.942 90.5273C247.11 90.5273 248.153 90.2417 249.071 89.6705C249.99 89.0745 250.71 88.2798 251.232 87.2865C251.753 86.2683 252.002 85.126 251.977 83.8595C252.002 82.5682 251.753 81.4258 251.232 80.4325C250.71 79.4143 249.99 78.6197 249.071 78.0485C248.153 77.4773 247.11 77.1918 245.942 77.1918C244.775 77.1918 243.72 77.4898 242.776 78.0858C241.857 78.6569 241.137 79.4516 240.616 80.4698C240.094 81.4631 239.846 82.593 239.871 83.8595C239.846 85.126 240.094 86.2683 240.616 87.2865C241.137 88.2798 241.857 89.0745 242.776 89.6705C243.72 90.2417 244.775 90.5273 245.942 90.5273ZM268.376 94.0287C266.563 94.0287 264.936 93.5818 263.496 92.6878C262.08 91.7938 260.95 90.5769 260.106 89.0373C259.287 87.4976 258.877 85.7717 258.877 83.8595C258.877 81.9473 259.287 80.2214 260.106 78.6818C260.95 77.1421 262.08 75.9253 263.496 75.0313C264.936 74.1373 266.563 73.6903 268.376 73.6903C270.114 73.6903 271.691 74.0504 273.106 74.7705C274.547 75.4658 275.639 76.4219 276.384 77.6388L274.261 80.2463C273.864 79.6751 273.355 79.1536 272.734 78.6818C272.113 78.2099 271.455 77.8374 270.76 77.5643C270.064 77.2911 269.394 77.1545 268.748 77.1545C267.556 77.1545 266.488 77.4525 265.545 78.0485C264.626 78.6197 263.893 79.4143 263.347 80.4325C262.801 81.4507 262.527 82.593 262.527 83.8595C262.527 85.126 262.813 86.2683 263.384 87.2865C263.955 88.2798 264.713 89.0745 265.656 89.6705C266.6 90.2665 267.643 90.5645 268.785 90.5645C269.456 90.5645 270.102 90.4528 270.722 90.2293C271.368 90.0058 271.989 89.6705 272.585 89.2235C273.181 88.7765 273.74 88.2302 274.261 87.5845L276.384 90.192C275.59 91.3095 274.447 92.2283 272.957 92.9485C271.492 93.6687 269.965 94.0287 268.376 94.0287ZM278.476 82.7793L277.21 79.911L285.516 76.2233L286.857 78.9798L278.476 82.7793ZM280.003 93.6562V66.0913H283.84V93.6562H280.003ZM296.586 94.0287C294.972 94.0287 293.494 93.5818 292.153 92.6878C290.837 91.7938 289.781 90.5769 288.987 89.0373C288.192 87.4976 287.795 85.7593 287.795 83.8223C287.795 81.8604 288.192 80.1221 288.987 78.6073C289.806 77.0676 290.899 75.8632 292.265 74.994C293.655 74.1249 295.208 73.6903 296.921 73.6903C297.939 73.6903 298.87 73.8393 299.715 74.1373C300.559 74.4353 301.292 74.8574 301.913 75.4038C302.558 75.9253 303.08 76.5337 303.477 77.229C303.899 77.9243 304.16 78.6693 304.259 79.464L303.403 79.166V74.1H307.277V93.6562H303.403V89L304.297 88.7393C304.148 89.4098 303.837 90.0678 303.365 90.7135C302.918 91.3343 302.335 91.8931 301.615 92.3898C300.919 92.8864 300.137 93.2838 299.268 93.5818C298.423 93.8797 297.529 94.0287 296.586 94.0287ZM297.592 90.49C298.759 90.49 299.789 90.2044 300.683 89.6333C301.577 89.0621 302.273 88.2798 302.769 87.2865C303.291 86.2683 303.552 85.1136 303.552 83.8223C303.552 82.5558 303.291 81.4258 302.769 80.4325C302.273 79.4392 301.577 78.6569 300.683 78.0858C299.789 77.5146 298.759 77.229 297.592 77.229C296.449 77.229 295.431 77.5146 294.537 78.0858C293.668 78.6569 292.973 79.4392 292.451 80.4325C291.954 81.4258 291.706 82.5558 291.706 83.8223C291.706 85.1136 291.954 86.2683 292.451 87.2865C292.973 88.2798 293.668 89.0621 294.537 89.6333C295.431 90.2044 296.449 90.49 297.592 90.49ZM317.221 93.6562L310.553 74.1L314.427 74.0628L319.195 88.702L318.338 88.6275L323.516 77.1918H325.825L331.04 88.6648L330.035 88.7393L334.84 74.1H338.714L332.121 93.6562H329.476L324.037 81.2148L324.894 81.3265L319.828 93.6562H317.221Z" fill="#1A202C"/>
<defs>
<clipPath id="clip0_1438_153">
<rect width="117.839" height="109.983" fill="white" transform="translate(0 2.16406)"/>
</clipPath>
</defs>
</svg>
